<svg width="112" height="112" viewBox="0 0 112 112" fill="none" xmlns="http://www.w3.org/2000/svg">
<path d="M101.273 64.375H91.4395C91.2567 64.3748 91.0814 64.302 90.9522 64.1728C90.8229 64.0435 90.7502 63.8683 90.7499 63.6855V57.6665H93.4952C95.8146 57.6666 98.0863 57.0085 100.047 55.7687C102.007 54.5289 103.575 52.7583 104.569 50.6626C105.562 48.5669 105.941 46.2323 105.661 43.9299C105.38 41.6276 104.452 39.4521 102.984 37.6562L100.269 34.334C98.6889 32.3962 97.8246 29.9728 97.8222 27.4722V27.3962C97.822 22.2851 95.7915 17.3833 92.1773 13.7693C88.563 10.1552 83.6612 8.12494 78.55 8.125H71.0285C65.9285 8.13077 61.0391 10.1593 57.4329 13.7655C53.8268 17.3717 51.7983 22.2612 51.7926 27.3611V44.2377C51.7972 48.2682 53.4003 52.1323 56.2503 54.9823C59.1003 57.8323 62.9644 59.4354 66.9949 59.44H71.9999V63.6855C71.9997 63.8683 71.927 64.0435 71.7977 64.1728C71.6685 64.302 71.4932 64.3748 71.3104 64.375H59.6027C56.9242 64.378 54.3563 65.4434 52.4623 67.3374C50.5684 69.2314 49.503 71.7993 49.5 74.4777V95.0957L43.8189 73.2953C43.7175 72.8896 43.4834 72.5295 43.1538 72.2722C42.8243 72.0148 42.4181 71.875 42 71.875H40.6514L41.5889 68.125H42C44.4864 68.125 46.8709 67.1373 48.6291 65.3791C50.3872 63.621 51.375 61.2364 51.375 58.75C51.375 56.2636 50.3872 53.879 48.6291 52.1209C46.8709 50.3627 44.4864 49.375 42 49.375H34.5C28.7564 49.3805 23.1405 47.6802 18.3646 44.4897L14.9151 42.19C14.6327 42.0017 14.3046 41.8936 13.9656 41.8772C13.6266 41.8608 13.2895 41.9367 12.9903 42.0969C12.6911 42.257 12.4409 42.4953 12.2665 42.7865C12.0921 43.0776 12 43.4106 12 43.75V73.75C12 74.0894 12.0921 74.4224 12.2665 74.7135C12.4409 75.0047 12.6911 75.243 12.9903 75.4031C13.2895 75.5633 13.6266 75.6392 13.9656 75.6228C14.3046 75.6064 14.6327 75.4983 14.9151 75.31L18.3646 73.0103C21.9074 70.6444 25.9281 69.0884 30.1406 68.4531L29.2851 71.875H27C26.5027 71.875 26.0258 72.0725 25.6741 72.4242C25.3225 72.7758 25.125 73.2527 25.125 73.75V85C25.125 85.3087 25.2012 85.6125 25.3468 85.8847C25.4924 86.1568 25.703 86.3888 25.9598 86.56L31.0007 89.9219L36.441 109.87C36.5491 110.265 36.7837 110.614 37.1089 110.863C37.4341 111.112 37.832 111.248 38.2417 111.25H109.5C109.997 111.25 110.474 111.052 110.826 110.701C111.177 110.349 111.375 109.872 111.375 109.375V74.4777C111.372 71.7995 110.307 69.2317 108.413 67.3378C106.519 65.4438 103.952 64.3783 101.273 64.375ZM71.0285 11.875H78.55C80.5884 11.875 82.6069 12.2764 84.4902 13.0565C86.3734 13.8365 88.0846 14.9799 89.526 16.4213C90.9674 17.8626 92.1108 19.5738 92.8909 21.457C93.671 23.3403 94.0724 25.3588 94.0724 27.3972V27.4731C94.0758 30.8384 95.2389 34.0996 97.3659 36.7075L100.081 40.0298C101.099 41.2761 101.743 42.7859 101.938 44.3837C102.132 45.9814 101.869 47.6016 101.18 49.0559C100.49 50.5102 99.4015 51.739 98.0412 52.5993C96.6808 53.4597 95.1043 53.9163 93.4947 53.9163H90.7499V51.1466C93.2315 50.17 95.1796 47.3697 95.1796 44.3523C95.1775 42.4541 94.4224 40.6342 93.0801 39.2919C91.7379 37.9496 89.918 37.1946 88.0197 37.1924C86.4152 37.1906 84.8769 36.5524 83.7423 35.4179C82.6077 34.2833 81.9694 32.7451 81.9675 31.1406V23.2124C81.9674 22.8731 81.8753 22.5401 81.7009 22.249C81.5265 21.9579 81.2764 21.7196 80.9772 21.5595C80.678 21.3993 80.3409 21.3234 80.002 21.3398C79.663 21.3562 79.3349 21.4642 79.0525 21.6524C74.1937 24.8982 68.4805 26.6279 62.6374 26.6223H55.5614C55.7556 22.6494 57.4693 18.903 60.3482 16.1581C63.227 13.4132 67.0508 11.8798 71.0285 11.875ZM75.7499 63.6855V59.44H76.2977C76.795 59.44 77.2719 59.2425 77.6235 58.8908C77.9751 58.5392 78.1727 58.0623 78.1727 57.565C78.1727 57.0677 77.9751 56.5908 77.6235 56.2392C77.2719 55.8875 76.795 55.69 76.2977 55.69H66.9949C63.9586 55.6865 61.0477 54.4788 58.9007 52.3319C56.7538 50.1849 55.5461 47.274 55.5426 44.2377V30.3723H62.6374C68.0684 30.3779 73.4179 29.0517 78.2175 26.5101V31.1406C78.2204 33.7395 79.2541 36.2311 81.0918 38.0688C82.9295 39.9064 85.4211 40.9401 88.0199 40.9431C88.9238 40.9442 89.7904 41.3037 90.4296 41.9428C91.0688 42.5819 91.4285 43.4484 91.4296 44.3523C91.4296 46.3563 89.7721 47.7625 88.8749 47.7625C88.3777 47.7625 87.9007 47.96 87.5491 48.3117C87.1975 48.6633 86.9999 49.1402 86.9999 49.6375V63.6855C87.0005 64.3944 87.171 65.0929 87.4973 65.7223C87.8235 66.3517 88.296 66.8937 88.8749 67.3028V74.6875C88.8749 76.9253 87.986 79.0714 86.4037 80.6537C84.8213 82.2361 82.6752 83.125 80.4374 83.125C78.1997 83.125 76.0536 82.2361 74.4712 80.6537C72.8889 79.0714 71.9999 76.9253 71.9999 74.6875V68.0659C73.0439 67.9012 73.9949 67.3696 74.6822 66.5668C75.3695 65.7639 75.7481 64.7423 75.7499 63.6855ZM68.2499 68.125V74.6875C68.2499 77.9198 69.534 81.0198 71.8196 83.3054C74.1052 85.591 77.2051 86.875 80.4374 86.875C83.6698 86.875 86.7697 85.591 89.0553 83.3054C91.3409 81.0198 92.6249 77.9198 92.6249 74.6875V68.125H96.0532L96.2533 85.4102C96.259 85.8999 96.4561 86.3679 96.8024 86.7142L97.9928 87.9046C99.573 89.4918 100.56 91.5734 100.789 93.8013C101.018 96.0292 100.475 98.2682 99.2503 100.143L96.7781 103.277C96.517 103.607 96.3749 104.017 96.3749 104.438V107.5H64.4999V104.438C64.4999 104.061 64.3861 103.692 64.1732 103.381L62.0029 100.203C60.758 98.3268 60.1994 96.0779 60.4215 93.8369C60.6435 91.5959 61.6327 89.5004 63.2217 87.9046C63.2697 87.8565 63.3152 87.8059 63.3578 87.753L64.3139 86.5626C64.5812 86.2296 64.7269 85.8154 64.7268 85.3884V68.125H68.2499ZM47.3024 56.875H43.875C43.3777 56.875 42.9008 57.0725 42.5491 57.4242C42.1975 57.7758 42 58.2527 42 58.75C42 59.2473 42.1975 59.7242 42.5491 60.0758C42.9008 60.4275 43.3777 60.625 43.875 60.625H47.3024C46.9136 61.7208 46.1952 62.6695 45.2459 63.3409C44.2965 64.0123 43.1627 64.3735 42 64.375H36.375V53.125H42C43.1627 53.1265 44.2965 53.4877 45.2459 54.1591C46.1952 54.8305 46.9136 55.7792 47.3024 56.875ZM16.2846 69.8903L15.75 70.2466V47.2544L16.2846 47.6106C21.1457 50.8581 26.7881 52.7439 32.625 53.072V64.375C32.4242 64.3752 32.2247 64.4077 32.0343 64.4713C26.4048 64.8886 20.9791 66.7555 16.2846 69.8903ZM34.087 68.1325C34.2248 68.1306 34.3619 68.125 34.5 68.125H37.7235L36.786 71.875H33.1514L34.087 68.1325ZM39.6839 107.506L34.4339 88.2566C34.3148 87.82 34.0417 87.4411 33.6651 87.19L28.875 83.9966V75.625H32.625V77.5C32.6266 78.9913 33.2198 80.4211 34.2743 81.4756C35.3289 82.5302 36.7586 83.1233 38.25 83.125C38.7472 83.125 39.2241 82.9275 39.5758 82.5758C39.9274 82.2242 40.125 81.7473 40.125 81.25C40.125 80.7527 39.9274 80.2758 39.5758 79.9242C39.2241 79.5725 38.7472 79.375 38.25 79.375C37.7528 79.3744 37.2763 79.1767 36.9247 78.8252C36.5732 78.4737 36.3755 77.9971 36.375 77.5V75.625H40.536L42.056 81.7047L42.063 81.7323L48.933 107.547L39.6839 107.506ZM53.25 74.4777C53.2519 72.7935 53.9219 71.1788 55.1128 69.9879C56.3038 68.7969 57.9184 68.127 59.6027 68.125H60.9759V84.7286L60.4945 85.3281C58.3229 87.5453 56.9789 90.4412 56.6877 93.531C56.3964 96.6208 57.1754 99.7169 58.8944 102.301L60.7499 105.017V107.5H53.25V74.4777ZM107.625 107.5H100.125V105.089L102.243 102.405C102.273 102.366 102.303 102.325 102.331 102.284C104.055 99.6851 104.829 96.5711 104.521 93.4679C104.214 90.3648 102.845 87.4629 100.644 85.2531L99.9942 84.6027L99.8034 68.125H101.273C102.957 68.1273 104.572 68.7974 105.762 69.9883C106.953 71.1792 107.623 72.7937 107.625 74.4777V107.5ZM75.7499 37.0855C75.7499 37.5723 75.6056 38.0481 75.3352 38.4528C75.0648 38.8575 74.6805 39.1729 74.2308 39.3592C73.7811 39.5454 73.2863 39.5942 72.8089 39.4992C72.3315 39.4042 71.893 39.1699 71.5489 38.8257C71.2047 38.4815 70.9703 38.043 70.8754 37.5657C70.7804 37.0883 70.8291 36.5935 71.0154 36.1438C71.2017 35.6941 71.5171 35.3098 71.9218 35.0394C72.3265 34.7689 72.8023 34.6246 73.289 34.6246C73.9417 34.6246 74.5676 34.8839 75.0292 35.3454C75.4907 35.8069 75.7499 36.4329 75.7499 37.0855ZM64.4999 37.0855C64.4999 37.5955 64.3487 38.0939 64.0655 38.5179C63.7822 38.9418 63.3795 39.2723 62.9084 39.4674C62.4373 39.6626 61.919 39.7136 61.4189 39.6141C60.9187 39.5147 60.4594 39.2691 60.0988 38.9086C59.7383 38.548 59.4927 38.0886 59.3932 37.5885C59.2938 37.0884 59.3448 36.57 59.5399 36.0989C59.7351 35.6278 60.0655 35.2252 60.4895 34.9419C60.9135 34.6586 61.4119 34.5074 61.9218 34.5074C62.6056 34.5074 63.2613 34.779 63.7448 35.2625C64.2283 35.746 64.4999 36.4018 64.4999 37.0855ZM72.6328 45.9501C72.9794 46.3065 73.1703 46.7861 73.1634 47.2833C73.1565 47.7805 72.9524 48.2546 72.596 48.6013C71.7719 49.4022 70.7334 49.9471 69.6062 50.1699C68.4789 50.3928 67.3112 50.2842 66.2444 49.8571L65.6774 49.63C65.2158 49.445 64.8466 49.0842 64.651 48.627C64.4555 48.1698 64.4495 47.6536 64.6345 47.192C64.8195 46.7304 65.1802 46.3612 65.6375 46.1656C66.0947 45.97 66.6108 45.9641 67.0724 46.1491L67.6394 46.3762C68.033 46.5341 68.4639 46.5744 68.88 46.4922C69.296 46.41 69.6792 46.2088 69.9831 45.913C70.3396 45.5669 70.8188 45.3764 71.3156 45.3833C71.8124 45.3903 72.2861 45.5941 72.6328 45.9501ZM0.749954 58.75C0.749954 58.2527 0.947498 57.7758 1.29913 57.4242C1.65076 57.0725 2.12767 56.875 2.62495 56.875H6.37495C6.87223 56.875 7.34915 57.0725 7.70078 57.4242C8.05241 57.7758 8.24995 58.2527 8.24995 58.75C8.24995 59.2473 8.05241 59.7242 7.70078 60.0758C7.34915 60.4275 6.87223 60.625 6.37495 60.625H2.62495C2.12767 60.625 1.65076 60.4275 1.29913 60.0758C0.947498 59.7242 0.749954 59.2473 0.749954 58.75ZM0.948 44.7864C1.17042 44.3417 1.5604 44.0035 2.03215 43.8463C2.5039 43.689 3.01879 43.7257 3.46355 43.948L7.21355 45.823C7.43573 45.932 7.63415 46.0839 7.79737 46.2699C7.96058 46.4559 8.08536 46.6723 8.16452 46.9068C8.24367 47.1412 8.27563 47.389 8.25856 47.6359C8.24149 47.8828 8.17571 48.1238 8.06503 48.3452C7.95435 48.5665 7.80096 48.7637 7.61369 48.9255C7.42642 49.0872 7.20898 49.2103 6.97392 49.2877C6.73885 49.365 6.4908 49.395 6.24407 49.376C5.99734 49.357 5.75682 49.2894 5.53636 49.177L1.78636 47.302C1.34162 47.0795 1.00344 46.6896 0.846216 46.2178C0.688994 45.746 0.725607 45.2312 0.948 44.7864ZM7.21355 71.677L3.46355 73.552C3.24309 73.6644 3.00256 73.732 2.75583 73.751C2.50911 73.77 2.26106 73.74 2.02599 73.6627C1.79092 73.5853 1.57349 73.4622 1.38622 73.3005C1.19895 73.1387 1.04555 72.9415 0.934874 72.7202C0.824194 72.4988 0.758421 72.2578 0.741346 72.0109C0.724272 71.764 0.756233 71.5162 0.835388 71.2818C0.914543 71.0473 1.03933 70.8309 1.20254 70.6449C1.36576 70.4589 1.56418 70.307 1.78636 70.198L5.53636 68.323C5.75682 68.2106 5.99734 68.143 6.24407 68.124C6.4908 68.105 6.73885 68.135 6.97392 68.2123C7.20898 68.2897 7.42642 68.4128 7.61369 68.5745C7.80096 68.7363 7.95435 68.9335 8.06503 69.1548C8.17571 69.3762 8.24149 69.6172 8.25856 69.8641C8.27563 70.111 8.24367 70.3588 8.16452 70.5932C8.08536 70.8277 7.96058 71.0441 7.79737 71.2301C7.63415 71.4161 7.43573 71.568 7.21355 71.677ZM9.18745 23.125H28.875C29.3722 23.125 29.8491 22.9275 30.2008 22.5758C30.5524 22.2242 30.75 21.7473 30.75 21.25V8.125C30.75 7.62772 30.5524 7.15081 30.2008 6.79918C29.8491 6.44754 29.3722 6.25 28.875 6.25H20.7187L18.7134 1.73852C18.5661 1.40706 18.3258 1.12545 18.0217 0.927805C17.7175 0.730164 17.3626 0.624979 16.9999 0.625H12C11.5027 0.625 11.0258 0.822544 10.6741 1.17417C10.3225 1.52581 10.125 2.00272 10.125 2.5V6.25H4.49995C4.00267 6.25 3.52576 6.44754 3.17413 6.79918C2.8225 7.15081 2.62495 7.62772 2.62495 8.125V16.5625C2.62694 18.3024 3.31898 19.9704 4.54926 21.2007C5.77954 22.431 7.44758 23.123 9.18745 23.125ZM27 19.375H21.375V10H27V19.375ZM6.37495 10H12C12.4972 10 12.9741 9.80246 13.3258 9.45082C13.6774 9.09919 13.875 8.62228 13.875 8.125V4.375H15.7814L17.625 8.52344V19.375H9.18745C8.44178 19.3742 7.72688 19.0776 7.19961 18.5503C6.67234 18.0231 6.37576 17.3082 6.37495 16.5625V10ZM39.6185 28.75C38.9381 28.7481 38.2641 28.8812 37.6355 29.1416C37.0069 29.402 36.4361 29.7845 35.9564 30.2669L34.5 31.7235L33.0435 30.2669C32.4192 29.6428 31.6458 29.1887 30.7967 28.9476C29.9475 28.7064 29.0508 28.6863 28.1917 28.8891C27.3326 29.0919 26.5396 29.5109 25.8879 30.1063C25.2363 30.7017 24.7476 31.4538 24.4682 32.2912C24.0213 33.6429 23.9978 35.0989 24.4009 36.4644C24.8041 37.8298 25.6146 39.0396 26.7241 39.9318L33.3281 45.2141C33.6606 45.4804 34.0739 45.6255 34.5 45.6255C34.926 45.6255 35.3393 45.4804 35.6718 45.2141L42.2765 39.9304C43.3855 39.0382 44.1956 37.8286 44.5985 36.4635C45.0014 35.0984 44.9779 33.6428 44.5312 32.2914C44.1884 31.2597 43.5292 30.3623 42.6473 29.7265C41.7654 29.0908 40.7056 28.7491 39.6185 28.75ZM39.9332 37.0021L34.5 41.3488L29.0667 37.0023C28.5548 36.5906 28.1809 36.0324 27.9948 35.4024C27.8088 34.7724 27.8195 34.1006 28.0256 33.4769C28.1027 33.2457 28.2376 33.0382 28.4176 32.8738C28.5975 32.7095 28.8164 32.5939 29.0536 32.5379C29.2907 32.482 29.5382 32.4876 29.7726 32.5542C30.007 32.6209 30.2205 32.7463 30.3928 32.9186L33.175 35.7009C33.3491 35.875 33.5558 36.0131 33.7833 36.1073C34.0108 36.2016 34.2547 36.2501 34.5009 36.2501C34.7471 36.2501 34.991 36.2016 35.2184 36.1073C35.4459 36.0131 35.6526 35.875 35.8267 35.7009L38.609 32.9186C38.7813 32.7463 38.9948 32.6209 39.2292 32.5543C39.4636 32.4877 39.7111 32.4821 39.9483 32.538C40.1854 32.594 40.4044 32.7096 40.5843 32.874C40.7642 33.0383 40.8991 33.246 40.9762 33.4771C41.182 34.101 41.1925 34.7728 41.0061 35.4027C40.8197 36.0327 40.4454 36.5907 39.9332 37.0021Z" fill="url(#paint0_linear)"/>
<defs>
<linearGradient id="paint0_linear" x1="56.0117" y1="111.279" x2="56.0117" y2="0.625" gradientUnits="userSpaceOnUse">
<stop stop-color="#0FCFFE"/>
<stop offset="0.5307" stop-color="#D91FFC"/>
<stop offset="1" stop-color="#FF00A4"/>
</linearGradient>
</defs>
</svg>
