<svg width="89" height="114" viewBox="0 0 89 114" fill="none" xmlns="http://www.w3.org/2000/svg">
<path d="M8.125 55.125C8.125 54.6277 8.32254 54.1508 8.67418 53.7992C9.02581 53.4475 9.50272 53.25 10 53.25H25C25.4973 53.25 25.9742 53.4475 26.3258 53.7992C26.6775 54.1508 26.875 54.6277 26.875 55.125C26.875 55.6223 26.6775 56.0992 26.3258 56.4508C25.9742 56.8025 25.4973 57 25 57H10C9.50272 57 9.02581 56.8025 8.67418 56.4508C8.32254 56.0992 8.125 55.6223 8.125 55.125ZM15.625 60.75H10C9.50272 60.75 9.02581 60.9475 8.67418 61.2992C8.32254 61.6508 8.125 62.1277 8.125 62.625C8.125 63.1223 8.32254 63.5992 8.67418 63.9508C9.02581 64.3025 9.50272 64.5 10 64.5H15.625C16.1223 64.5 16.5992 64.3025 16.9508 63.9508C17.3025 63.5992 17.5 63.1223 17.5 62.625C17.5 62.1277 17.3025 61.6508 16.9508 61.2992C16.5992 60.9475 16.1223 60.75 15.625 60.75ZM25 64.5C25.4973 64.5 25.9742 64.3025 26.3258 63.9508C26.6775 63.5992 26.875 63.1223 26.875 62.625C26.875 62.1277 26.6775 61.6508 26.3258 61.2992C25.9742 60.9475 25.4973 60.75 25 60.75H23.125C22.6277 60.75 22.1508 60.9475 21.7992 61.2992C21.4475 61.6508 21.25 62.1277 21.25 62.625C21.25 63.1223 21.4475 63.5992 21.7992 63.9508C22.1508 64.3025 22.6277 64.5 23.125 64.5H25ZM87.0655 63.9141C88.2212 65.0636 88.8854 66.6171 88.918 68.2468C88.9505 69.8766 88.349 71.4553 87.2402 72.6502L70.2862 91.017C68.281 93.1803 65.6302 94.6375 62.7292 95.171L47.0069 98.0304L41.7555 112.034C41.6213 112.391 41.3814 112.699 41.0677 112.916C40.754 113.134 40.3815 113.25 40 113.25H11.875C11.5669 113.25 11.2636 113.174 10.9918 113.029C10.72 112.884 10.4881 112.675 10.3166 112.419C10.1452 112.163 10.0394 111.868 10.0087 111.562C9.97803 111.255 10.0233 110.946 10.1406 110.661L22.2002 81.375H6.71875C5.10314 81.3732 3.55422 80.7306 2.41181 79.5882C1.2694 78.4458 0.626799 76.8969 0.625 75.2812V6.84375C0.626799 5.22814 1.2694 3.67921 2.41181 2.5368C3.55422 1.39439 5.10314 0.751799 6.71875 0.75H73.2812C74.8969 0.751799 76.4458 1.39439 77.5882 2.5368C78.7306 3.67921 79.3732 5.22814 79.375 6.84375V62.9637C80.5795 62.2424 81.9904 61.9442 83.3837 62.1164C84.777 62.2886 86.0729 62.9213 87.0655 63.9141ZM73.2812 4.5H49.375V12H73.2812C74.0859 11.9991 74.8826 12.1585 75.625 12.4688V6.84375C75.6243 6.22236 75.3772 5.62661 74.9378 5.18722C74.4984 4.74783 73.9026 4.50068 73.2812 4.5ZM34.375 25.125H45.625V15.75H34.375V25.125ZM34.375 4.5V12H45.625V4.5H34.375ZM4.375 6.84375V12.4688C5.11739 12.1585 5.91413 11.9991 6.71875 12H30.625V4.5H6.71875C6.09736 4.50068 5.50161 4.74783 5.06222 5.18722C4.62283 5.62661 4.37568 6.22236 4.375 6.84375ZM6.71875 77.625H23.7306L25.2072 73.9355C25.8658 72.2756 26.8471 70.7628 28.0942 69.4847C29.3414 68.2066 30.8296 67.1885 32.4728 66.4894C32.4728 66.4894 41.6852 62.625 42.0674 62.625H49.375V53.25C49.375 52.7527 49.5725 52.2758 49.9242 51.9242C50.2758 51.5725 50.7527 51.375 51.25 51.375H70C70.4973 51.375 70.9742 51.5725 71.3258 51.9242C71.6775 52.2758 71.875 52.7527 71.875 53.25V68.1328L75.625 65.5366V18.0938C75.6243 17.4724 75.3772 16.8766 74.9378 16.4372C74.4984 15.9978 73.9026 15.7507 73.2812 15.75H49.375V27C49.375 27.4973 49.1775 27.9742 48.8258 28.3258C48.4742 28.6775 47.9973 28.875 47.5 28.875H32.5C32.0027 28.875 31.5258 28.6775 31.1742 28.3258C30.8225 27.9742 30.625 27.4973 30.625 27V23.25H21.25C20.7527 23.25 20.2758 23.0525 19.9242 22.7008C19.5725 22.3492 19.375 21.8723 19.375 21.375C19.375 20.8777 19.5725 20.4008 19.9242 20.0492C20.2758 19.6975 20.7527 19.5 21.25 19.5H30.625V15.75H6.71875C6.09736 15.7507 5.50161 15.9978 5.06222 16.4372C4.62283 16.8766 4.37568 17.4724 4.375 18.0938V75.2812C4.37568 75.9026 4.62283 76.4984 5.06222 76.9378C5.50161 77.3772 6.09736 77.6243 6.71875 77.625ZM68.125 55.125H53.125V62.6445C54.0033 62.7097 54.857 62.9652 55.6268 63.3932C56.3965 63.8211 57.0641 64.4113 57.5831 65.1229C58.1021 65.8345 58.4602 66.6504 58.6326 67.5141C58.8049 68.3778 58.7874 69.2687 58.5812 70.125H68.125V55.125ZM50.3336 75.5681L48.2765 77.625H58.1641L63.5807 73.875H55.8815C55.3431 74.2116 54.7554 74.4618 54.1396 74.6166L50.3336 75.5681ZM84.4141 66.5655C83.991 66.1422 83.4326 65.8808 82.8365 65.827C82.2404 65.7733 81.6443 65.9306 81.1523 66.2714L59.8176 81.0415C59.5039 81.2587 59.1315 81.375 58.75 81.375H43.75C43.3792 81.375 43.0166 81.2651 42.7083 81.059C42.3999 80.853 42.1596 80.5602 42.0177 80.2175C41.8757 79.8749 41.8386 79.4979 41.911 79.1342C41.9833 78.7705 42.1619 78.4364 42.4241 78.1741L48.0491 72.5491C48.2895 72.3091 48.5907 72.139 48.9203 72.057L53.23 70.9788C53.5413 70.9011 53.8333 70.7599 54.0876 70.5642C54.1002 70.5537 54.1134 70.5438 54.1263 70.5335C54.5036 70.2306 54.7775 69.8181 54.9103 69.3528C55.0431 68.8875 55.0282 68.3925 54.8677 67.9361C54.7071 67.4797 54.4088 67.0843 54.0139 66.8047C53.6191 66.5251 53.1471 66.3749 52.6633 66.375H42.2598L33.9503 69.9375C32.7603 70.4435 31.6825 71.1804 30.7793 72.1057C29.876 73.031 29.1653 74.1263 28.6881 75.3281L26.7409 80.1966L26.7337 80.2139L26.7311 80.2207L26.7248 80.2357L14.6746 109.5H38.7006L43.8695 95.7166C43.9834 95.413 44.1741 95.144 44.423 94.9361C44.6719 94.7281 44.9705 94.5883 45.2896 94.5302L62.0584 91.4812C64.1592 91.0948 66.0788 90.0396 67.5309 88.473L84.4844 70.1065C84.9338 69.6222 85.1777 68.9824 85.1646 68.3218C85.1515 67.6612 84.8824 67.0316 84.4141 66.5655ZM10 23.25H13.75C14.2473 23.25 14.7242 23.0525 15.0758 22.7008C15.4275 22.3492 15.625 21.8723 15.625 21.375C15.625 20.8777 15.4275 20.4008 15.0758 20.0492C14.7242 19.6975 14.2473 19.5 13.75 19.5H10C9.50272 19.5 9.02581 19.6975 8.67418 20.0492C8.32254 20.4008 8.125 20.8777 8.125 21.375C8.125 21.8723 8.32254 22.3492 8.67418 22.7008C9.02581 23.0525 9.50272 23.25 10 23.25Z" fill="url(#paint0_linear)"/>
<defs>
<linearGradient id="paint0_linear" x1="44.7368" y1="113.279" x2="44.7368" y2="0.75" gradientUnits="userSpaceOnUse">
<stop stop-color="#0FCFFE"/>
<stop offset="0.5307" stop-color="#D91FFC"/>
<stop offset="1" stop-color="#FF00A4"/>
</linearGradient>
</defs>
</svg>
