<svg width="21" height="28" viewBox="0 0 21 28" fill="none" xmlns="http://www.w3.org/2000/svg">
<path fill-rule="evenodd" clip-rule="evenodd" d="M10.7927 26.8825C5.87029 26.8825 1.66666 26.1165 1.66666 23.0488C1.66666 19.9811 5.84363 17.1492 10.7927 17.1492C15.7151 17.1492 19.9188 19.9536 19.9188 23.0214C19.9188 26.0878 15.7418 26.8825 10.7927 26.8825Z" stroke="#CCA3BD" stroke-width="1.5" stroke-linecap="round" stroke-linejoin="round"/>
<path fill-rule="evenodd" clip-rule="evenodd" d="M10.7831 12.8981C14.0134 12.8981 16.6315 10.28 16.6315 7.04965C16.6315 3.81935 14.0134 1.19995 10.7831 1.19995C7.55275 1.19995 4.93335 3.81935 4.93335 7.04965C4.92244 10.269 7.52244 12.8872 10.7418 12.8981C10.7564 12.8981 10.7697 12.8981 10.7831 12.8981Z" stroke="#CCA3BD" stroke-width="1.5" stroke-linecap="round" stroke-linejoin="round"/>
</svg>
