<svg width="28" height="24" viewBox="0 0 28 24" fill="none" xmlns="http://www.w3.org/2000/svg">
<path fill-rule="evenodd" clip-rule="evenodd" d="M20.5859 0C22.3739 0 24.0939 0.706667 25.3592 1.97467C26.6259 3.24 27.3339 4.94667 27.3339 6.73333V17.2667C27.3339 20.9867 24.3072 24 20.5859 24H7.4139C3.69257 24 0.667236 20.9867 0.667236 17.2667V6.73333C0.667236 3.01333 3.67924 0 7.4139 0H20.5859ZM22.7072 8.72003L22.8139 8.61336C23.1325 8.2267 23.1325 7.6667 22.7992 7.28003C22.6139 7.08136 22.3592 6.96003 22.0939 6.93336C21.8139 6.91869 21.5472 7.01336 21.3459 7.20003L15.3339 12C14.5605 12.6414 13.4525 12.6414 12.6672 12L6.66721 7.20003C6.25255 6.89336 5.67921 6.93336 5.33388 7.29336C4.97388 7.65336 4.93388 8.2267 5.23921 8.6267L5.41388 8.80003L11.4805 13.5334C12.2272 14.12 13.1325 14.44 14.0805 14.44C15.0259 14.44 15.9472 14.12 16.6925 13.5334L22.7072 8.72003Z" fill="#FF00A4"/>
</svg>
