<svg width="26" height="28" viewBox="0 0 26 28" fill="none" xmlns="http://www.w3.org/2000/svg">
<path d="M9.1797 25.6979V21.6209C9.1797 20.5802 10.0296 19.7365 11.0779 19.7365H14.9101C15.4136 19.7365 15.8964 19.935 16.2524 20.2884C16.6084 20.6418 16.8084 21.1211 16.8084 21.6209V25.6979C16.8052 26.1305 16.9761 26.5466 17.2832 26.8537C17.5902 27.1607 18.0081 27.3334 18.4439 27.3334H21.0584C22.2795 27.3365 23.4517 26.8572 24.3162 26.0012C25.1808 25.1451 25.6667 23.9827 25.6667 22.7705V11.1559C25.6666 10.1767 25.2294 9.24787 24.4728 8.61964L15.5787 1.56791C14.0315 0.331497 11.8148 0.371418 10.3139 1.66272L1.62268 8.61964C0.83032 9.22935 0.356735 10.1609 0.333332 11.1559V22.7587C0.333332 25.2852 2.39651 27.3334 4.94156 27.3334H7.49639C8.40163 27.3334 9.13733 26.6084 9.14389 25.7097L9.1797 25.6979Z" fill="#FF00A4"/>
</svg>
