<svg width="28" height="26" viewBox="0 0 28 26" fill="none" xmlns="http://www.w3.org/2000/svg">
<path fill-rule="evenodd" clip-rule="evenodd" d="M19.1331 0.334197C19.9744 0.334197 20.8144 0.452864 21.6131 0.720864C26.5344 2.32086 28.3077 7.72086 26.8264 12.4409C25.9864 14.8529 24.6131 17.0542 22.8144 18.8529C20.2397 21.3462 17.4144 23.5595 14.3731 25.4662L14.0397 25.6675L13.6931 25.4529C10.6411 23.5595 7.79972 21.3462 5.20106 18.8395C3.41439 17.0409 2.03972 14.8529 1.18639 12.4409C-0.320278 7.72086 1.45306 2.32086 6.42772 0.692864C6.81439 0.559531 7.21306 0.466197 7.61306 0.414197H7.77306C8.14772 0.359531 8.51972 0.334197 8.89305 0.334197H9.03972C9.87972 0.359531 10.6931 0.506197 11.4811 0.774197H11.5597C11.6131 0.799531 11.6531 0.827531 11.6797 0.852864C11.9744 0.947531 12.2531 1.0542 12.5197 1.20086L13.0264 1.42753C13.1488 1.49283 13.2862 1.5926 13.405 1.67883C13.4803 1.73346 13.548 1.78265 13.5997 1.8142C13.6215 1.82704 13.6436 1.83994 13.6659 1.85296C13.7802 1.9197 13.8993 1.98921 13.9997 2.0662C15.4811 0.934197 17.2797 0.320864 19.1331 0.334197ZM22.6797 9.9342C23.2264 9.91953 23.6931 9.48086 23.7331 8.91953V8.76086C23.7731 6.89286 22.6411 5.20086 20.9197 4.54753C20.3731 4.35953 19.7731 4.6542 19.5731 5.2142C19.3864 5.7742 19.6797 6.38753 20.2397 6.5862C21.0944 6.9062 21.6664 7.74753 21.6664 8.67953V8.72086C21.6411 9.0262 21.7331 9.32086 21.9197 9.54753C22.1064 9.7742 22.3864 9.9062 22.6797 9.9342Z" fill="#FF00A4"/>
</svg>
