<svg width="28" height="28" viewBox="0 0 28 28" fill="none"
    xmlns="http://www.w3.org/2000/svg">
    <defs>
        <clipPath id="clip0">
            <rect width="28" height="28" fill="white"/>
        </clipPath>
    </defs>
    <g clip-path="url(#clip0)">
        <path d="M25.4239 21.8208C25.0005 22.799 24.4993 23.6995 23.9186 24.5273C23.127 25.6559 22.4789 26.4372 21.9794 26.871C21.2051 27.583 20.3755 27.9477 19.4871 27.9685C18.8493 27.9685 18.0802 27.787 17.185 27.4189C16.2867 27.0524 15.4613 26.871 14.7065 26.871C13.9149 26.871 13.066 27.0524 12.1579 27.4189C11.2485 27.787 10.5158 27.9788 9.95565 27.9979C9.10375 28.0341 8.25462 27.6591 7.40704 26.871C6.86607 26.3991 6.18943 25.5903 5.37884 24.4444C4.50914 23.2207 3.79412 21.8017 3.23397 20.184C2.63406 18.4367 2.33333 16.7446 2.33333 15.1065C2.33333 13.23 2.7388 11.6116 3.55094 10.2554C4.18922 9.166 5.03835 8.30666 6.10111 7.67582C7.16386 7.04497 8.31217 6.7235 9.5488 6.70294C10.2254 6.70294 11.1128 6.91224 12.2155 7.32358C13.315 7.73631 14.0211 7.94561 14.3306 7.94561C14.562 7.94561 15.3463 7.70088 16.676 7.21297C17.9333 6.76049 18.9945 6.57314 19.8639 6.64694C22.2196 6.83706 23.9894 7.76569 25.1664 9.43873C23.0596 10.7153 22.0174 12.5033 22.0381 14.7969C22.0571 16.5835 22.7053 18.0702 23.9791 19.2507C24.5563 19.7986 25.201 20.222 25.9183 20.5228C25.7627 20.9739 25.5985 21.4059 25.4239 21.8208ZM20.0212 0.560404C20.0212 1.96072 19.5096 3.2682 18.4898 4.47838C17.2593 5.91706 15.7708 6.74839 14.1567 6.61721C14.1362 6.44921 14.1242 6.27241 14.1242 6.08661C14.1242 4.7423 14.7094 3.30363 15.7487 2.12732C16.2675 1.53173 16.9274 1.03651 17.7276 0.641462C18.5261 0.252308 19.2814 0.037098 19.9918 0.000244141C20.0125 0.187445 20.0212 0.374658 20.0212 0.560386V0.560404Z" fill="black"/>
    </g>
</svg>
