<svg width="40" height="40" viewBox="0 0 40 40" fill="none" xmlns="http://www.w3.org/2000/svg">
<rect width="40" height="40" rx="12" fill="white"/>
<path fill-rule="evenodd" clip-rule="evenodd" d="M13 13C12.4477 13 12 13.4477 12 14V28C12 28.5523 12.4477 29 13 29H27C27.5523 29 28 28.5523 28 28V14C28 13.4477 27.5523 13 27 13H13ZM10 14C10 12.3431 11.3431 11 13 11H27C28.6569 11 30 12.3431 30 14V28C30 29.6569 28.6569 31 27 31H13C11.3431 31 10 29.6569 10 28V14Z" fill="black"/>
<path fill-rule="evenodd" clip-rule="evenodd" d="M24 9C24.5523 9 25 9.44772 25 10V14C25 14.5523 24.5523 15 24 15C23.4477 15 23 14.5523 23 14V10C23 9.44772 23.4477 9 24 9Z" fill="black"/>
<path fill-rule="evenodd" clip-rule="evenodd" d="M16 9C16.5523 9 17 9.44772 17 10V14C17 14.5523 16.5523 15 16 15C15.4477 15 15 14.5523 15 14V10C15 9.44772 15.4477 9 16 9Z" fill="black"/>
<path fill-rule="evenodd" clip-rule="evenodd" d="M10 18C10 17.4477 10.4477 17 11 17H29C29.5523 17 30 17.4477 30 18C30 18.5523 29.5523 19 29 19H11C10.4477 19 10 18.5523 10 18Z" fill="black"/>
</svg>
