<svg width="41" height="36" viewBox="0 0 41 36" fill="none" xmlns="http://www.w3.org/2000/svg">
<path fill-rule="evenodd" clip-rule="evenodd" d="M31.38 6.47281C31.46 6.61265 31.6 6.71254 31.78 6.71254C36.58 6.71254 40.5 10.6282 40.5 15.4229V27.2897C40.5 32.0844 36.58 36 31.78 36H9.22C4.4 36 0.5 32.0844 0.5 27.2897V15.4229C0.5 10.6282 4.4 6.71254 9.22 6.71254C9.38 6.71254 9.54 6.63263 9.6 6.47281L9.72 6.23307C9.78896 6.08794 9.85973 5.93886 9.93158 5.78753C10.4432 4.70984 11.0093 3.51758 11.36 2.81687C12.28 1.01887 13.84 0.0199778 15.78 0H25.2C27.14 0.0199778 28.72 1.01887 29.64 2.81687C29.955 3.44615 30.4349 4.45979 30.8974 5.43678C30.9929 5.63841 31.0876 5.83849 31.18 6.0333L31.38 6.47281ZM29.92 14.1442C29.92 15.1431 30.72 15.9422 31.72 15.9422C32.72 15.9422 33.54 15.1431 33.54 14.1442C33.54 13.1453 32.72 12.3262 31.72 12.3262C30.72 12.3262 29.92 13.1453 29.92 14.1442ZM17.0401 17.2407C17.9801 16.3018 19.2001 15.8023 20.5001 15.8023C21.8001 15.8023 23.0201 16.3018 23.9401 17.2208C24.8601 18.1397 25.3601 19.3584 25.3601 20.6569C25.3401 23.334 23.1801 25.5116 20.5001 25.5116C19.2001 25.5116 17.9801 25.0121 17.0601 24.0931C16.1401 23.1742 15.6401 21.9555 15.6401 20.6569V20.637C15.6201 19.3784 16.1201 18.1597 17.0401 17.2407ZM26.04 26.2108C24.62 27.6292 22.66 28.5083 20.5 28.5083C18.4 28.5083 16.44 27.6892 14.94 26.2108C13.46 24.7125 12.64 22.7547 12.64 20.657C12.62 18.5793 13.44 16.6215 14.92 15.1231C16.42 13.6248 18.4 12.8057 20.5 12.8057C22.6 12.8057 24.58 13.6248 26.06 15.1032C27.54 16.6015 28.36 18.5793 28.36 20.657C28.34 22.8346 27.46 24.7924 26.04 26.2108Z" fill="#FF00A4"/>
</svg>
