<svg width="16" height="18" viewBox="0 0 16 18" fill="none"
    xmlns="http://www.w3.org/2000/svg">
    <path d="M15.9999 9.04454C16.0078 8.39924 15.675 7.80615 15.1345 7.49485L2.53838 0.226941C1.9742 -0.107918 1.30913 -0.0667782 0.777508 0.314457C0.236132 0.702113 -0.0409682 1.62494 0.110372 2.29145L1.28627 7.46522C1.40699 7.99575 1.85912 8.36931 2.37928 8.36697L9.38897 8.34413C9.74792 8.33657 10.039 8.6423 10.0318 9.01927C10.0307 9.38983 9.74392 9.69104 9.38496 9.6986L2.3686 9.71571C1.84844 9.71677 1.3941 10.092 1.27025 10.6233L0.0527674 15.8177C-0.0950543 16.4315 0.0734794 17.0443 0.48589 17.4774C0.534409 17.5283 0.588993 17.5857 0.643615 17.6302C1.1777 18.0629 1.87716 18.1181 2.47435 17.784L15.1132 10.5872C15.6555 10.2851 15.9919 9.68985 15.9999 9.04454Z" fill="white"/>
</svg>
