<svg width="18" height="18" viewBox="0 0 18 18" fill="none" xmlns="http://www.w3.org/2000/svg">
<path d="M9 13.5C9.41421 13.5 9.75 13.1642 9.75 12.75C9.75 12.3358 9.41421 12 9 12C8.58579 12 8.25 12.3358 8.25 12.75C8.25 13.1642 8.58579 13.5 9 13.5Z" fill="#FF00A4"/>
<path fill-rule="evenodd" clip-rule="evenodd" d="M9.26699 6.42038C8.90281 6.43636 8.70861 6.58289 8.64138 6.72572C8.465 7.1005 8.01819 7.26133 7.64341 7.08494C7.26863 6.90855 7.1078 6.46174 7.28419 6.08696C7.67582 5.25484 8.51953 4.95174 9.20122 4.92182C9.85697 4.89304 10.673 5.10191 11.1245 5.69063C11.4719 6.14367 11.6671 6.71795 11.5883 7.32177C11.5083 7.93404 11.1591 8.48325 10.5924 8.90013C9.83575 9.4568 9.83709 9.74083 9.83728 9.78219C9.83729 9.78279 9.83729 9.78335 9.83729 9.78385C9.83729 10.1981 9.5015 10.5338 9.08729 10.5338C8.67307 10.5338 8.33729 10.1981 8.33729 9.78385C8.33729 9.06631 8.75465 8.38996 9.70357 7.69186C9.99524 7.47729 10.082 7.27199 10.1009 7.12762C10.1208 6.9748 10.0775 6.79032 9.93419 6.60342C9.92411 6.59028 9.86933 6.53557 9.73216 6.48627C9.6012 6.43921 9.43652 6.41294 9.26699 6.42038Z" fill="#FF00A4"/>
<path d="M9 17.25C4.425 17.25 0.75 13.575 0.75 9C0.75 4.425 4.425 0.75 9 0.75C13.575 0.75 17.25 4.425 17.25 9C17.25 13.575 13.575 17.25 9 17.25ZM9 2.25C5.25 2.25 2.25 5.25 2.25 9C2.25 12.75 5.25 15.75 9 15.75C12.75 15.75 15.75 12.75 15.75 9C15.75 5.25 12.75 2.25 9 2.25Z" fill="#FF00A4"/>
</svg>
