<svg width="28" height="28" viewBox="0 0 28 28" fill="none"
    xmlns="http://www.w3.org/2000/svg">
    <defs>
        <clipPath id="clip0">
            <rect width="28" height="28" fill="white"/>
        </clipPath>
    </defs>
    <g clip-path="url(#clip0)">
        <path d="M27.727 14.3225C27.727 13.3709 27.6499 12.414 27.4853 11.4778H14.28V16.8689H21.842C21.5282 18.6077 20.52 20.1458 19.0436 21.1232V24.6213H23.5551C26.2043 22.1829 27.727 18.582 27.727 14.3225Z" fill="#4285F4"/>
        <path d="M14.28 28.0009C18.0559 28.0009 21.2401 26.7611 23.5602 24.6211L19.0487 21.1231C17.7935 21.977 16.1731 22.4606 14.2851 22.4606C10.6327 22.4606 7.53592 19.9965 6.42477 16.6836H1.76925V20.2897C4.14588 25.0172 8.98659 28.0009 14.28 28.0009Z" fill="#34A853"/>
        <path d="M6.41964 16.6837C5.8332 14.9449 5.8332 13.0621 6.41964 11.3234V7.71729H1.76926C-0.216409 11.6732 -0.216409 16.3339 1.76926 20.2898L6.41964 16.6837Z" fill="#FBBC04"/>
        <path d="M14.28 5.54127C16.276 5.5104 18.205 6.26146 19.6506 7.64011L23.6476 3.64305C21.1167 1.26642 17.7575 -0.0402103 14.28 0.000943444C8.98659 0.000943444 4.14588 2.98459 1.76925 7.71728L6.41962 11.3234C7.52563 8.00535 10.6276 5.54127 14.28 5.54127Z" fill="#EA4335"/>
    </g>
</svg>
