<svg width="24" height="22" viewBox="0 0 24 22" fill="none"
    xmlns="http://www.w3.org/2000/svg">
    <path fill-rule="evenodd" clip-rule="evenodd" d="M14.5795 1.01387C15.4061 0.674616 16.292 0.5 17.1868 0.5C18.0815 0.5 18.9675 0.674616 19.7941 1.01387C20.6205 1.35307 21.3714 1.8502 22.0039 2.47687C22.6365 3.10333 23.1388 3.84746 23.4812 4.66607C23.8237 5.48484 24 6.36242 24 7.24869C24 8.13496 23.8237 9.01255 23.4812 9.83131C23.1387 10.65 22.6368 11.3938 22.0041 12.0203L12.7407 21.196C12.3315 21.6013 11.668 21.6013 11.2587 21.196L1.99538 12.0203C0.71776 10.7548 0 9.03841 0 7.24869C0 5.45897 0.71776 3.74256 1.99538 2.47704C3.273 1.21152 5.00582 0.500555 6.81265 0.500555C8.61948 0.500555 10.3523 1.21152 11.6299 2.47704L11.9997 2.84333L12.3693 2.47721C13.0018 1.85046 13.753 1.3531 14.5795 1.01387Z" fill="#FF00A4"/>
</svg>
