<svg width="14" height="12" viewBox="0 0 14 12" fill="none"
    xmlns="http://www.w3.org/2000/svg">
    <path fill-rule="evenodd" clip-rule="evenodd" d="M8.69934 0.455298C9.15949 0.264637 9.65268 0.166504 10.1508 0.166504C10.6488 0.166504 11.142 0.264637 11.6022 0.455298C12.0622 0.645923 12.4802 0.925307 12.8323 1.27749C13.1845 1.62957 13.4641 2.04776 13.6547 2.50782C13.8454 2.96796 13.9435 3.46116 13.9435 3.95924C13.9435 4.45731 13.8454 4.95051 13.6547 5.41066C13.4641 5.87075 13.1846 6.28879 12.8324 6.64088C12.8324 6.64091 12.8324 6.64085 12.8324 6.64088L7.67574 11.7975C7.44794 12.0254 7.07859 12.0254 6.85078 11.7975L1.69412 6.64088C0.982901 5.92966 0.583344 4.96505 0.583344 3.95924C0.583344 2.95342 0.982901 1.98881 1.69412 1.27759C2.40533 0.566373 3.36995 0.166816 4.37576 0.166816C5.38158 0.166816 6.34619 0.566373 7.05741 1.27759L7.26326 1.48344L7.46902 1.27769C7.46905 1.27765 7.46899 1.27772 7.46902 1.27769C7.82111 0.925455 8.23924 0.645941 8.69934 0.455298ZM10.1508 1.33317C9.80594 1.33317 9.46449 1.40111 9.14593 1.5331C8.82737 1.6651 8.53794 1.85857 8.29417 2.10245L7.67574 2.72088C7.44794 2.94869 7.07859 2.94869 6.85078 2.72088L6.23245 2.10255C5.74003 1.61012 5.07216 1.33348 4.37576 1.33348C3.67937 1.33348 3.0115 1.61012 2.51908 2.10255C2.02665 2.59497 1.75001 3.26284 1.75001 3.95924C1.75001 4.65563 2.02665 5.3235 2.51908 5.81592L7.26326 10.5601L12.0075 5.81592C12.2513 5.57215 12.4449 5.28262 12.5769 4.96406C12.7089 4.6455 12.7768 4.30406 12.7768 3.95924C12.7768 3.61441 12.7089 3.27297 12.5769 2.95441C12.4449 2.63585 12.2514 2.34641 12.0075 2.10264C11.7638 1.85876 11.4742 1.6651 11.1556 1.5331C10.837 1.40111 10.4956 1.33317 10.1508 1.33317Z" fill="white"/>
</svg>
