<svg width="10" height="10" viewBox="0 0 10 10" fill="none" xmlns="http://www.w3.org/2000/svg">
<path fill-rule="evenodd" clip-rule="evenodd" d="M1.5 1C1.22386 1 1 1.22386 1 1.5V8.5C1 8.77614 1.22386 9 1.5 9H8.5C8.77614 9 9 8.77614 9 8.5V1.5C9 1.22386 8.77614 1 8.5 1H1.5ZM0 1.5C0 0.671573 0.671573 0 1.5 0H8.5C9.32843 0 10 0.671573 10 1.5V8.5C10 9.32843 9.32843 10 8.5 10H1.5C0.671573 10 0 9.32843 0 8.5V1.5Z" fill="white"/>
<path fill-rule="evenodd" clip-rule="evenodd" d="M3.25 3C3.11193 3 3 3.11193 3 3.25C3 3.38807 3.11193 3.5 3.25 3.5C3.38807 3.5 3.5 3.38807 3.5 3.25C3.5 3.11193 3.38807 3 3.25 3ZM2 3.25C2 2.55964 2.55964 2 3.25 2C3.94036 2 4.5 2.55964 4.5 3.25C4.5 3.94036 3.94036 4.5 3.25 4.5C2.55964 4.5 2 3.94036 2 3.25Z" fill="white"/>
<path fill-rule="evenodd" clip-rule="evenodd" d="M6.64645 3.64645C6.84171 3.45118 7.15829 3.45118 7.35355 3.64645L9.85355 6.14645C10.0488 6.34171 10.0488 6.65829 9.85355 6.85355C9.65829 7.04882 9.34171 7.04882 9.14645 6.85355L7 4.70711L1.85355 9.85355C1.65829 10.0488 1.34171 10.0488 1.14645 9.85355C0.951184 9.65829 0.951184 9.34171 1.14645 9.14645L6.64645 3.64645Z" fill="white"/>
</svg>
