<svg width="8" height="8" viewBox="0 0 8 8" fill="none"
    xmlns="http://www.w3.org/2000/svg">
    <g opacity="0.6">
        <path fill-rule="evenodd" clip-rule="evenodd" d="M4.00001 0.666667C3.29276 0.666667 2.61448 0.947618 2.11439 1.44772C1.61429 1.94781 1.33334 2.62609 1.33334 3.33333C1.33334 4.36602 2.00525 5.36808 2.74199 6.14575C3.10354 6.52739 3.46623 6.83982 3.7389 7.05695C3.84038 7.13776 3.92901 7.20506 4 7.25753C4.071 7.20506 4.15963 7.13776 4.26111 7.05695C4.53378 6.83982 4.89647 6.52739 5.25802 6.14575C5.99476 5.36808 6.66667 4.36602 6.66667 3.33333C6.66667 2.62609 6.38572 1.94781 5.88562 1.44772C5.38553 0.947618 4.70725 0.666667 4.00001 0.666667ZM4.00001 7.66667C3.81511 7.94402 3.81502 7.94396 3.81492 7.9439L3.81397 7.94326L3.81175 7.94177L3.80411 7.9366C3.79762 7.93219 3.78836 7.92586 3.77652 7.91766C3.75285 7.90127 3.71883 7.87737 3.67594 7.8464C3.59019 7.78447 3.46879 7.69407 3.32361 7.57847C3.03378 7.34768 2.64647 7.01428 2.25802 6.60425C1.49476 5.79858 0.666672 4.63398 0.666672 3.33333C0.666672 2.44928 1.01786 1.60143 1.64298 0.976311C2.2681 0.351189 3.11595 0 4.00001 0C4.88406 0 5.73191 0.351189 6.35703 0.976311C6.98215 1.60143 7.33334 2.44928 7.33334 3.33333C7.33334 4.63398 6.50525 5.79858 5.74199 6.60425C5.35354 7.01428 4.96623 7.34768 4.6764 7.57847C4.53122 7.69407 4.40982 7.78447 4.32407 7.8464C4.28118 7.87737 4.24716 7.90127 4.22349 7.91766C4.21165 7.92586 4.20239 7.93219 4.1959 7.9366L4.18826 7.94177L4.18604 7.94326L4.18533 7.94373C4.18524 7.94379 4.18491 7.94402 4.00001 7.66667ZM4.00001 7.66667L4.18491 7.94402C4.07294 8.01866 3.92689 8.01854 3.81492 7.9439L4.00001 7.66667Z" fill="#100B26"/>
        <path fill-rule="evenodd" clip-rule="evenodd" d="M4.00001 2.66667C3.63182 2.66667 3.33334 2.96514 3.33334 3.33333C3.33334 3.70152 3.63182 4 4.00001 4C4.36819 4 4.66667 3.70152 4.66667 3.33333C4.66667 2.96514 4.36819 2.66667 4.00001 2.66667ZM2.66667 3.33333C2.66667 2.59695 3.26363 2 4.00001 2C4.73638 2 5.33334 2.59695 5.33334 3.33333C5.33334 4.06971 4.73638 4.66667 4.00001 4.66667C3.26363 4.66667 2.66667 4.06971 2.66667 3.33333Z" fill="#100B26"/>
    </g>
</svg>
