<svg width="38" height="28" viewBox="0 0 38 28" fill="none"
    xmlns="http://www.w3.org/2000/svg">
    <path d="M4.73923 2.36997C3.53288 2.45774 2.49887 3.42322 2.32653 4.73983C1.98186 7.46083 1.8957 10.6207 1.8957 14.0439C1.8957 16.8527 1.98186 19.4859 2.24036 21.7681C2.4127 23.8746 4.13606 25.6301 6.20409 25.7179C11.2018 26.069 15.5964 26.2445 19.2154 26.2445C22.8345 26.2445 27.1429 26.069 32.1406 25.7179C34.2086 25.5423 35.932 23.8746 36.1043 21.7681C36.2766 19.3981 36.449 16.8527 36.449 14.0439C36.449 10.6207 36.2766 7.46083 36.0181 4.73983C35.8458 3.51099 34.898 2.54552 33.6054 2.36997C28.0045 1.9311 23.1791 1.75548 19.2154 1.75548C15.0794 1.75548 10.3401 1.9311 4.73923 2.36997ZM4.5669 0.614484C10.1678 0.175613 15.0794 0 19.0431 0C23.093 0 27.9184 0.175613 33.6054 0.614484C35.6735 0.790032 37.3107 2.36999 37.5692 4.47657C37.9138 7.28535 38 10.4452 38 13.9561C38 16.8527 37.9138 19.4859 37.6553 21.8558C37.3968 24.8401 35.0703 27.2101 32.0544 27.4734C27.0567 27.8245 22.7483 28 19.0431 28C15.3379 28 10.9433 27.8245 5.94558 27.4734C3.01587 27.2978 0.603176 24.9279 0.344673 21.8558C0.172337 19.4859 0 16.7649 0 13.9561C0 10.4452 0.172336 7.28535 0.430839 4.47657C0.861678 2.45776 2.49887 0.790032 4.5669 0.614484ZM19.1293 15.7994C18.6122 15.7994 18.2676 15.4483 18.2676 14.9216C18.2676 14.395 18.6122 14.0439 19.1293 14.0439C19.5601 14.0439 20.0771 13.9562 20.4218 13.6929L34.5533 5.44207C35.3288 5.0032 35.5873 4.03768 35.1565 3.24771C35.1565 3.24771 35.1565 3.24773 35.0703 3.15996C34.9841 3.07218 34.9841 2.98435 34.9841 2.98435C34.7256 2.54547 34.898 2.01881 35.2426 1.75548C35.6735 1.49216 36.1905 1.66775 36.449 2.01885C36.449 2.01885 36.449 2.01883 36.5352 2.1066C36.6213 2.19438 36.6213 2.28219 36.7075 2.36997C37.5692 4.03768 36.966 6.05644 35.415 6.93419L21.2835 15.185C20.5941 15.6239 19.8186 15.7994 19.1293 15.7994ZM19.1293 14.0439C19.6463 14.0439 19.9909 14.395 19.9909 14.9216C19.9909 15.4483 19.6463 15.7994 19.1293 15.7994C18.3537 15.7994 17.6644 15.6238 16.9751 15.2727L2.84354 7.02194C1.20635 6.1442 0.603179 4.12543 1.46486 2.45772C1.46486 2.36995 1.55102 2.36999 1.63719 2.28222C1.72336 2.19444 1.72336 2.19436 1.72336 2.19436C1.98186 1.75548 2.49887 1.66777 2.92971 1.9311C3.36055 2.19442 3.44672 2.72109 3.18821 3.15996C3.18821 3.15996 3.10204 3.24769 3.10204 3.33546L3.01587 3.42322C2.58503 4.21318 2.92971 5.1787 3.70522 5.61757L17.8367 13.8684C18.1814 13.9561 18.6122 14.0439 19.1293 14.0439ZM36.7075 24.7524C36.7075 24.8402 36.6213 24.8401 36.5352 24.9279C36.449 25.0157 36.449 25.0157 36.449 25.0157C36.1905 25.4545 35.6735 25.5423 35.2426 25.279C34.8118 25.0157 34.7256 24.489 34.9841 24.0502C34.9841 24.0502 35.0703 23.9624 35.0703 23.8747L35.1565 23.7869C35.5873 22.9969 35.2426 22.0314 34.5533 21.5925L34.381 21.5047L24.5578 12.9029C24.2132 12.5518 24.127 12.0251 24.4717 11.674C24.8163 11.3229 25.3333 11.2352 25.678 11.5863L35.415 20.1881C36.966 21.1536 37.5692 23.1725 36.7075 24.7524ZM2.75737 20.2759L12.4943 11.674C12.839 11.3229 13.356 11.4107 13.7007 11.7618C14.0454 12.1129 13.9592 12.6395 13.6145 12.9906L3.79138 21.5925L3.61905 21.6803C2.84354 22.1192 2.58503 23.0847 3.01587 23.8747C3.01587 23.8747 3.01587 23.8746 3.10204 23.9624C3.18821 24.0502 3.18821 24.1379 3.18821 24.1379C3.44672 24.5768 3.27438 25.1035 2.92971 25.3668C2.49887 25.6301 1.98186 25.4546 1.72336 25.1035C1.72336 25.1035 1.72336 25.1034 1.63719 25.0157C1.55102 24.9279 1.55102 24.8402 1.46486 24.7524C0.689346 23.1725 1.20635 21.1537 2.75737 20.2759Z" fill="#100B26"/>
</svg>
