<svg width="18" height="18" viewBox="0 0 18 18" fill="none"
    xmlns="http://www.w3.org/2000/svg">
    <path fill-rule="evenodd" clip-rule="evenodd" d="M8.99999 0.75C9.28546 0.75 9.54617 0.912054 9.67252 1.16803L11.8157 5.50985L16.6085 6.21039C16.8909 6.25167 17.1254 6.44967 17.2134 6.72118C17.3015 6.99268 17.2278 7.29062 17.0233 7.48977L13.5559 10.867L14.3742 15.6382C14.4225 15.9196 14.3068 16.204 14.0758 16.3718C13.8448 16.5396 13.5386 16.5617 13.2859 16.4288L8.99999 14.1749L4.71408 16.4288C4.46139 16.5617 4.15517 16.5396 3.92419 16.3718C3.69321 16.204 3.57752 15.9196 3.62578 15.6382L4.4441 10.867L0.976692 7.48977C0.772228 7.29062 0.698524 6.99268 0.786557 6.72118C0.87459 6.44967 1.1091 6.25167 1.39152 6.21039L6.18429 5.50985L8.32746 1.16803C8.45381 0.912054 8.71453 0.75 8.99999 0.75Z" fill="#F4D961"/>
</svg>
