<svg width="192" height="80" viewBox="0 0 192 80" fill="none" xmlns="http://www.w3.org/2000/svg">
<path d="M13.4513 31.2091C13.4513 29.1356 15.1526 28.3381 17.9705 28.3381C22.0112 28.3381 27.1153 29.561 31.156 31.7408V19.2465C26.7431 17.492 22.3834 16.8008 17.9705 16.8008C7.17757 16.8008 0 22.4366 0 31.8471C0 46.5213 20.2035 44.1819 20.2035 50.5088C20.2035 52.9545 18.0768 53.752 15.0995 53.752C10.6866 53.752 5.05088 51.9443 0.584839 49.4986V62.1524C5.52939 64.2791 10.5271 65.183 15.0995 65.183C26.1583 65.183 33.7612 59.7068 33.7612 50.1898C33.708 34.346 13.4513 37.1639 13.4513 31.2091ZM49.3923 6.16739L36.4195 8.93209L36.3664 51.519C36.3664 59.3877 42.2679 65.183 50.1367 65.183C54.4964 65.183 57.6864 64.3855 59.4409 63.4285V52.6355C57.7396 53.3267 49.3391 55.7724 49.3391 47.9036V29.0293H59.4409V17.7047H49.3391L49.3923 6.16739ZM75.9759 21.639L75.1252 17.7047H63.6411V64.226H76.9329V32.6978C80.0698 28.6039 85.3865 29.3483 87.0347 29.9331V17.7047C85.3333 17.0667 79.1128 15.897 75.9759 21.639ZM90.2779 17.7047H103.623V64.226H90.2779V17.7047ZM90.2779 13.664L103.623 10.7929V0L90.2779 2.81786V13.664ZM131.376 16.8008C126.166 16.8008 122.816 19.2465 120.955 20.9479L120.264 17.6515H108.567V79.6444L121.859 76.8266L121.912 61.7803C123.826 63.1626 126.644 65.1298 131.323 65.1298C140.84 65.1298 149.506 57.4737 149.506 40.6197C149.453 25.2012 140.68 16.8008 131.376 16.8008ZM128.186 53.433C125.049 53.433 123.188 52.3165 121.912 50.9342L121.859 31.2091C123.242 29.6673 125.156 28.6039 128.186 28.6039C133.024 28.6039 136.374 34.027 136.374 40.9919C136.374 48.1163 133.077 53.433 128.186 53.433ZM191.402 41.1514C191.402 27.5406 184.809 16.8008 172.209 16.8008C159.555 16.8008 151.899 27.5406 151.899 41.0451C151.899 57.0484 160.937 65.1298 173.91 65.1298C180.237 65.1298 185.022 63.6943 188.637 61.6739V51.0405C185.022 52.8482 180.875 53.9647 175.611 53.9647C170.454 53.9647 165.882 52.157 165.297 45.8833H191.296C191.296 45.1921 191.402 42.4274 191.402 41.1514ZM165.137 36.1005C165.137 30.0926 168.806 27.5938 172.155 27.5938C175.399 27.5938 178.854 30.0926 178.854 36.1005H165.137Z" fill="#6772E5"/>
</svg>
