<svg width="31" height="11" viewBox="0 0 31 11" fill="none" xmlns="http://www.w3.org/2000/svg">
<path fill-rule="evenodd" clip-rule="evenodd" d="M7.60985 10.4221H4.97562L3.00027 2.66443C2.90651 2.30758 2.70744 1.9921 2.4146 1.84341C1.6838 1.46974 0.878504 1.17237 0 1.02238V0.723711H4.24353C4.8292 0.723711 5.26845 1.17237 5.34166 1.69343L6.36658 7.28932L8.99953 0.723711H11.5605L7.60985 10.4221ZM13.0247 10.4221H10.5369L12.5855 0.723711H15.0733L13.0247 10.4221ZM18.2919 3.41044C18.3651 2.88808 18.8044 2.58941 19.3168 2.58941C20.1221 2.51442 20.9993 2.6644 21.7314 3.03677L22.1707 0.948655C21.4386 0.649982 20.6333 0.5 19.9025 0.5C17.4879 0.5 15.7309 1.84338 15.7309 3.70782C15.7309 5.12618 16.9754 5.87092 17.8539 6.31958C18.8044 6.76694 19.1704 7.06561 19.0972 7.51297C19.0972 8.18402 18.3651 8.48269 17.6343 8.48269C16.7558 8.48269 15.8773 8.25901 15.0733 7.88534L14.634 9.97476C15.5125 10.3471 16.463 10.4971 17.3415 10.4971C20.0489 10.5708 21.7314 9.22872 21.7314 7.2143C21.7314 4.67753 18.2919 4.52884 18.2919 3.41044ZM30.4381 10.4221L28.4628 0.723711H26.341C25.9017 0.723711 25.4625 1.02238 25.3161 1.46974L21.6582 10.4221H24.2192L24.7304 9.00507H27.8771L28.1699 10.4221H30.4381ZM26.707 3.33548L27.4378 6.99066H25.3893L26.707 3.33548Z" fill="white"/>
</svg>
